<?xml version="1.0" encoding="utf-8"?>
<!-- Generator: Adobe Illustrator 18.0.0, SVG Export Plug-In . SVG Version: 6.00 Build 0)  -->
<!DOCTYPE svg PUBLIC "-//W3C//DTD SVG 1.0//EN" "http://www.w3.org/TR/2001/REC-SVG-20010904/DTD/svg10.dtd">
<svg version="1.0" id="Layer_1" xmlns="http://www.w3.org/2000/svg" xmlns:xlink="http://www.w3.org/1999/xlink" x="0px" y="0px"
	 viewBox="0 0 15.8 13.8" enable-background="new 0 0 15.8 13.8" xml:space="preserve">
<g id="Rounded_Rectangle_11_copy_3">
	<g>
		<path d="M1.2,2.3h13.2c0.6,0,1.2-0.5,1.2-1.2C15.5,0.5,15,0,14.3,0H1.2C0.5,0,0,0.5,0,1.2C0,1.8,0.5,2.3,1.2,2.3z
			 M14.3,5.4H1.2C0.5,5.4,0,5.9,0,6.6c0,0.6,0.5,1.2,1.2,1.2h13.2c0.6,0,1.2-0.5,1.2-1.2C15.5,5.9,15,5.4,14.3,5.4z M14.3,10.8H1.2
			C0.5,10.8,0,11.4,0,12c0,0.6,0.5,1.2,1.2,1.2h13.2c0.6,0,1.2-0.5,1.2-1.2C15.5,11.4,15,10.8,14.3,10.8z"/>
	</g>
</g>
</svg>
