<?xml version="1.0" encoding="iso-8859-1"?>
<!-- Generator: Adobe Illustrator 16.2.0, SVG Export Plug-In . SVG Version: 6.00 Build 0)  -->
<!DOCTYPE svg PUBLIC "-//W3C//DTD SVG 1.1//EN" "http://www.w3.org/Graphics/SVG/1.1/DTD/svg11.dtd">
<svg version="1.1" id="&#x421;&#x43B;&#x43E;&#x439;_1"
	 xmlns="http://www.w3.org/2000/svg" xmlns:xlink="http://www.w3.org/1999/xlink" x="0px" y="0px" width="23.4px" height="23.4px"
	 viewBox="0 0 23.4 23.4" style="enable-background:new 0 0 23.4 23.4;" xml:space="preserve">
<path style="fill-rule:evenodd;clip-rule:evenodd;" d="M11.7,23.4C5.238,23.4,0,18.162,0,11.7C0,5.239,5.238,0,11.7,0
	c6.461,0,11.7,5.239,11.7,11.7C23.4,18.162,18.162,23.4,11.7,23.4z M18.231,7.6l-1.164-1.165c-0.214-0.214-0.562-0.214-0.776,0
	l-6.98,6.98L5.99,10.071c-0.214-0.214-0.562-0.214-0.776,0L4.05,11.235c-0.214,0.214-0.214,0.562,0,0.776l3.692,3.719
	c0.005,0.006,0.006,0.013,0.012,0.018l0.799,0.799l0.192,0.193l0,0l0.172,0.172c0.214,0.214,0.562,0.214,0.776,0l8.537-8.537
	C18.446,8.162,18.446,7.814,18.231,7.6z"/>
</svg>
