<?xml version="1.0" encoding="iso-8859-1"?>
<!-- Generator: Adobe Illustrator 16.2.0, SVG Export Plug-In . SVG Version: 6.00 Build 0)  -->
<!DOCTYPE svg PUBLIC "-//W3C//DTD SVG 1.1//EN" "http://www.w3.org/Graphics/SVG/1.1/DTD/svg11.dtd">
<svg version="1.1" id="&#x421;&#x43B;&#x43E;&#x439;_1"
	 xmlns="http://www.w3.org/2000/svg" xmlns:xlink="http://www.w3.org/1999/xlink" x="0px" y="0px" width="22.5px" height="22.5px"
	 viewBox="0 0 22.5 22.5" style="enable-background:new 0 0 22.5 22.5;" xml:space="preserve">
<path style="fill-rule:evenodd;clip-rule:evenodd;" d="M11.25,0C5.037,0,0,5.037,0,11.25S5.037,22.5,11.25,22.5
	S22.5,17.463,22.5,11.25S17.463,0,11.25,0z M11.25,17.632c-0.717,0-1.298-0.582-1.298-1.298c0-0.717,0.581-1.298,1.298-1.298
	s1.298,0.581,1.298,1.298C12.548,17.051,11.967,17.632,11.25,17.632z M12.548,12.007c0,0.717-0.582,1.298-1.298,1.298
	s-1.298-0.581-1.298-1.298V5.95c0-0.718,0.581-1.298,1.298-1.298s1.298,0.581,1.298,1.298V12.007z"/>
</svg>
