<?xml version="1.0" encoding="utf-8"?>
<!-- Generator: Adobe Illustrator 18.0.0, SVG Export Plug-In . SVG Version: 6.00 Build 0)  -->
<!DOCTYPE svg PUBLIC "-//W3C//DTD SVG 1.0//EN" "http://www.w3.org/TR/2001/REC-SVG-20010904/DTD/svg10.dtd">
<svg version="1.0" id="zoom_white_desk1x_18" xmlns="http://www.w3.org/2000/svg" xmlns:xlink="http://www.w3.org/1999/xlink"
	 x="0px" y="0px" viewBox="-1.5 -517.7 82.5 90.5" enable-background="new -1.5 -517.7 82.5 90.5" xml:space="preserve">
<path d="M34.3-470.3h-8.4c-0.1,0-0.1,0.1-0.1,0.1c-0.2,4.3-0.9,8.7-2,12.5v0.1l0.1,0.1h2.9c0.1,0,0.1,0,0.1-0.1
	c0.8-2.9,1.5-6.6,1.7-9.8h2.8v9.7c0,0.1,0.1,0.1,0.1,0.1h2.8c0.1,0,0.1-0.1,0.1-0.1v-12.5C34.5-470.3,34.4-470.3,34.3-470.3
	 M70-470.3h-2.8c-0.1,0-0.1,0.1-0.1,0.1v9.7c-0.6,0.2-1.2,0.2-1.9,0.2c-1.9,0-2.3-0.6-2.3-3.3v-6.7c0-0.1-0.1-0.1-0.1-0.1h-2.8
	c-0.1,0-0.1,0.1-0.1,0.1v7.1c0,4.4,1.3,6.1,4.8,6.1c2,0,4.1-0.6,5.4-1.2c0.1,0,0.1-0.1,0.1-0.1v-11.9
	C70.2-470.3,70.1-470.3,70-470.3 M11.7-470.3H8.9c-0.1,0-0.1,0-0.1,0.1c-0.4,2-1.3,5.2-2.5,8.5l-2.9-8.5c0-0.1-0.1-0.1-0.1-0.1H0.4
	c0,0-0.1,0-0.1,0.1v0.1l4.3,12.8c-0.4,1-0.8,1.8-1.2,2.5c-0.3,0.6-0.5,1.2-0.8,1.7v0.1l0.1,0.1h3.1c0.1,0,0.1,0,0.1-0.1
	c0.5-1.2,1.1-2.6,1.8-4.3c1.8-4.7,3.2-9.1,4.3-13.1v-0.1C11.8-470.3,11.7-470.3,11.7-470.3 M21.8-460.5
	C21.7-460.5,21.7-460.5,21.8-460.5c-0.1-0.1-0.2-0.1-0.2-0.1c-0.6,0.2-2,0.5-2.8,0.5c-1.9,0-2.8-0.6-2.8-3.8c0-2.6,0.3-3.8,2.8-3.8
	c0.7,0,1.3,0.1,2.3,0.3c0.1,0,0.1,0,0.2-0.1c0.3-0.7,0.7-1.5,1.1-2.4v-0.1l-0.1-0.1c-1.1-0.3-2.5-0.6-3.6-0.6c-4,0-5.8,2.1-5.8,6.8
	c0,4.8,1.8,6.9,5.8,6.9c1,0,3-0.2,3.9-0.7c0.1,0,0.1-0.1,0.1-0.2L21.8-460.5 M47.9-470.3h-2.8c-0.1,0-0.1,0-0.1,0.1
	c-0.4,2-1.3,5.2-2.5,8.5l-2.8-8.5c0-0.1-0.1-0.1-0.1-0.1h-3c0,0-0.1,0-0.1,0.1v0.1l4.3,12.8c-0.4,1-0.8,1.8-1.2,2.5
	c-0.3,0.6-0.5,1.2-0.8,1.7v0.1l0.1,0.1h3.1c0.1,0,0.1,0,0.1-0.1c0.5-1.2,1.1-2.6,1.8-4.3c1.8-4.6,3.2-9.1,4.3-13.1v-0.1
	C48-470.3,47.9-470.3,47.9-470.3 M58.2-470.3h-8.1c-0.1,0-0.1,0.1-0.1,0.1v12.5c0,0.1,0.1,0.1,0.1,0.1h2.8c0.1,0,0.1-0.1,0.1-0.1
	v-9.7h4.3c0.1,0,0.1,0,0.1-0.1c0.3-0.8,0.6-1.7,1-2.6v-0.1C58.3-470.3,58.3-470.3,58.2-470.3"/>
<path d="M14.9-489.6c-3.9,0-5.5,1.8-5.5,6.8s1.6,6.8,5.5,6.8c4,0,5.6-2,5.6-6.8C20.5-487.8,19-489.6,14.9-489.6
	 M14.9-478.9c-1.8,0-2.4-0.6-2.4-3.9c0-3.7,0.6-3.9,2.4-3.9s2.4,0.3,2.4,3.9C17.4-479.4,16.8-478.9,14.9-478.9 M31.5-479.4
	C31.5-479.4,31.4-479.5,31.5-479.4c-0.1-0.1-0.2-0.1-0.2-0.1c-0.6,0.2-2,0.5-2.8,0.5c-1.9,0-2.8-0.6-2.8-3.8c0-2.6,0.3-3.8,2.8-3.8
	c0.7,0,1.3,0.1,2.3,0.3c0.1,0,0.1,0,0.2-0.1c0.3-0.7,0.7-1.5,1.1-2.4v-0.1l-0.1-0.1c-1.1-0.3-2.5-0.6-3.6-0.6c-4,0-5.8,2.1-5.8,6.8
	c0,4.8,1.8,6.9,5.8,6.9c1,0,3-0.2,3.9-0.7c0.1,0,0.1-0.1,0.1-0.2L31.5-479.4 M8.6-489.3H0.4c-0.1,0-0.1,0.1-0.1,0.1v12.5
	c0,0.1,0.1,0.1,0.1,0.1h2.8c0.1,0,0.1-0.1,0.1-0.1v-9.7h4.3c0.1,0,0.1,0,0.1-0.1c0.3-0.8,0.6-1.7,1-2.6v-0.1
	C8.7-489.3,8.6-489.3,8.6-489.3"/>
<path d="M79.1-462.4v-0.5c0.1-1.4,0.2-3.2,0.3-5.1v-0.2c0-1.4,0.1-2.8,0.1-4.3c0-1.5,0-3-0.1-4.3v-0.2
	c-0.1-2-0.2-3.7-0.3-5.1v-1.1c-0.1-1.5-0.2-2.4-0.2-2.5c0-0.2,0-0.3-0.1-0.5v-0.1c0-0.3-0.1-0.6-0.1-0.7v-0.1
	c-0.7-3.2-2.4-6.6-4.6-9.1c-0.8-1-1.8-1.9-2.7-2.6c-0.1-0.1-1.1-0.8-2.9-2c-2-1.4-4.8-3.3-8.1-5.1c-5.7-3.3-10.8-5.7-11.4-5.9H49
	c-1.5-0.7-3.3-1.1-5.3-1.3c-0.4,0-0.7-0.1-1.1-0.1H41c-2.6,0.1-5,0.6-7,1.4c-0.3,0.1-5.4,2.4-11.2,5.9c0,0-0.1,0.1-0.2,0.1
	c-5.9,3.5-10.7,7-10.9,7.2c-1.5,1.1-2.8,2.5-4,4.3C7.5-494,7.5-493,8.7-493h3c1.3,0,1.6-0.7,3-1.8c1.6-1.1,4.6-3.4,10.4-6.9
	c4.1-2.4,8-4.4,9.8-5.2c0,0,0.1,0,0.1-0.1h0.3c0.5-0.2,0.7-0.4,0.7-0.4c1.3-0.6,3.2-0.9,5.1-1h0.7c0.6,0,1.1,0.1,1.7,0.1
	c1.2,0.2,2.2,0.4,3.2,0.7c0.1,0,0.2,0.1,0.3,0.1c0,0,0.1,0,0.2,0.1c0.8,0.4,5.7,2.6,10.9,5.7c3.1,1.8,5.9,3.6,7.7,4.9
	c1.7,1.1,2.7,1.9,2.7,2c0.7,0.6,1.5,1.3,2.1,2.1c1.8,2.2,3.2,5.3,3.3,7.6c0,0,0.1,1,0.2,2.5v3.2c0.1,2,0.2,4.4,0.2,6.9
	c0,2.5-0.1,4.9-0.2,6.9v3.2c-0.1,1.6-0.2,2.5-0.2,2.5c-0.3,2.3-1.7,5.4-3.3,7.6c-0.7,0.8-1.4,1.7-2.1,2.1c0,0-1,0.7-2.7,2
	c-1.9,1.3-4.6,3.2-7.7,4.9c-5.2,3.1-10,5.3-10.9,5.7c-0.1,0-0.1,0.1-0.2,0.1s-0.2,0.1-0.3,0.1c-0.8,0.4-2,0.7-3.2,0.7
	c-0.6,0.1-1.1,0.1-1.7,0.1h-0.7c-2,0-3.8-0.4-5.1-1c0,0-0.3-0.1-0.7-0.4c-0.1,0-0.1-0.1-0.2-0.1c0,0-0.1,0-0.1-0.1h-0.1
	c0,0-0.1,0-0.1-0.1c-0.1,0-0.1,0-0.2-0.1c-2-0.9-5.7-2.8-9.6-5.1c-5.8-3.3-8.8-5.7-10.4-6.9c-1.4-0.7-1.7-1.4-3-1.4H8.8
	c-1.2,0-1.1,1-0.9,1.4c1.2,1.8,2.5,3.2,4,4.3c0.2,0.2,4.9,3.6,10.9,7.2c0.3,0.2,0.7,0.4,0.9,0.6c5.5,3.2,10.2,5.3,10.5,5.5
	c1.9,0.8,4.4,1.4,7,1.4h1.6c0.4,0,0.7,0,1.1-0.1c2-0.2,3.8-0.7,5.3-1.3h0.1c0.7-0.3,5.8-2.6,11.4-5.9c3.2-1.9,6-3.7,8-5.1
	c1.7-1.2,2.8-2,2.9-2c0.9-0.7,1.9-1.6,2.7-2.6c2.1-2.6,3.9-6,4.6-9.1v-0.1c0.1-0.3,0.1-0.6,0.1-0.7v-0.1c0-0.2,0-0.3,0.1-0.5
	c0-0.1,0.1-1,0.2-2.5L79.1-462.4"/>
</svg>
