<?xml version="1.0" encoding="utf-8"?>
<!-- Generator: Adobe Illustrator 18.0.0, SVG Export Plug-In . SVG Version: 6.00 Build 0)  -->
<!DOCTYPE svg PUBLIC "-//W3C//DTD SVG 1.0//EN" "http://www.w3.org/TR/2001/REC-SVG-20010904/DTD/svg10.dtd">
<svg version="1.0" id="Layer_1" xmlns="http://www.w3.org/2000/svg" xmlns:xlink="http://www.w3.org/1999/xlink" x="0px" y="0px"
	 viewBox="0 0 26.2 27.8" enable-background="new 0 0 26.2 27.8" xml:space="preserve">
<path d="M24.1,6.2h-0.8l-1.3,2l-1.3-2h-0.8c-0.6,0-1.2,0.4-1.4,0.9c-0.2-0.5-0.8-0.9-1.4-0.9h-0.8l-1.3,2l-1.3-2
	h-0.8c-0.8,0-1.5,0.6-1.5,1.5l-0.4,8.6l1.2,0.8l0.9,10.6H17l0.8-10.5l0.6-0.5l0.6,0.4l0.9,10.6H24l0.8-10.5l1.2-0.9l-0.4-8.6
	C25.5,6.9,24.9,6.2,24.1,6.2"/>
<path d="M21.9,5.5c0.8,0,1.5-1.2,1.5-2.3c0-1.1-0.7-1.8-1.5-1.8c-0.8,0-1.5,0.7-1.5,1.8C20.4,4.3,21.1,5.5,21.9,5.5"
	/>
<path d="M14.9,5.5c0.8,0,1.5-1.2,1.5-2.3c0-1.1-0.7-1.8-1.5-1.8c-0.8,0-1.5,0.7-1.5,1.8C13.4,4.3,14.1,5.5,14.9,5.5"
	/>
<path d="M6.5,6.2H5.7l-1.3,2l-1.3-2H2.3c-0.8,0-1.5,0.6-1.5,1.5l-0.4,8.6l1.2,0.8l0.9,10.6h4.1l0.8-10.5l1.2-0.9
	L8,7.7C8,6.9,7.3,6.2,6.5,6.2"/>
<path d="M4.4,5.5c0.8,0,1.5-1.2,1.5-2.3c0-1.1-0.7-1.8-1.5-1.8c-0.8,0-1.5,0.7-1.5,1.8C2.9,4.3,3.5,5.5,4.4,5.5"/>
</svg>
