<?xml version="1.0" encoding="utf-8"?>
<!-- Generator: Adobe Illustrator 18.0.0, SVG Export Plug-In . SVG Version: 6.00 Build 0)  -->
<!DOCTYPE svg PUBLIC "-//W3C//DTD SVG 1.0//EN" "http://www.w3.org/TR/2001/REC-SVG-20010904/DTD/svg10.dtd">
<svg version="1.0" id="Layer_1" xmlns="http://www.w3.org/2000/svg" xmlns:xlink="http://www.w3.org/1999/xlink" x="0px" y="0px"
	 viewBox="0 0 99.5 30" enable-background="new 0 0 99.5 30" xml:space="preserve">
<path d="M65.6,18.2V11h2.4v3.4c0,0.2-0.1,0.5-0.1,0.5h0.1l2.7-3.9h2.3v7.3h-2.4v-3.4c0-0.2,0.1-0.5,0.1-0.5h-0.1
	l-2.7,3.9H65.6z"/>
<path d="M60.6,16.2c0.9,0,1.5-0.7,1.5-1.6c0-0.9-0.6-1.6-1.5-1.6c-0.9,0-1.5,0.7-1.5,1.6
	C59.1,15.5,59.7,16.2,60.6,16.2 M60.6,10.8c2.3,0,4,1.6,4,3.8c0,2.2-1.7,3.8-4,3.8c-2.3,0-4-1.6-4-3.8
	C56.5,12.4,58.3,10.8,60.6,10.8"/>
<path d="M12.3,25.8c1.5,0,2.5-1.1,2.5-2.5c0-1.4-1-2.5-2.5-2.5c-1.4,0-2.4,1.1-2.4,2.5C9.8,24.7,10.8,25.8,12.3,25.8
	 M12.3,19.5c2.3,0,3.9,1.6,3.9,3.8c0,2.2-1.6,3.8-3.9,3.8c-2.3,0-3.9-1.6-3.9-3.8C8.4,21.1,10,19.5,12.3,19.5"/>
<path d="M45,20.7c1.3,0,2,0.9,2.1,2h-4.2C43.1,21.5,43.9,20.7,45,20.7 M48.5,23.8c0-0.1,0-0.3,0-0.5
	c0-2.2-1.1-3.8-3.5-3.8c-2,0-3.5,1.6-3.5,3.8c0,0.2,0,0.3,0,0.5c0.2,1.9,1.4,3.4,3.9,3.4c1.2,0,2.3-0.4,3-1l-0.6-1
	c-0.6,0.4-1.4,0.8-2.4,0.8c-1.6,0-2.4-0.9-2.5-2.1h0H48.5z"/>
<polygon points="54.8,19.7 54.8,22.7 50.9,22.7 50.9,19.7 49.5,19.7 49.5,27 50.9,27 50.9,23.8 54.8,23.8 54.8,27 
	56.3,27 56.3,19.7 "/>
<polygon points="63.9,19.7 57.3,19.7 57.3,21 59.8,21 59.8,27 61.3,27 61.3,21 63.9,21 "/>
<rect x="71.6" y="19.7" width="1.4" height="7.3"/>
<path d="M20.3,23.1L20.3,23.1c0-0.1,0.1-0.1,0.3-0.2c0.1-0.1,2.8-3.2,2.8-3.2h-1.6l-2.5,3h-0.6v-3h-1.4V27h1.4v-3.2
	h0.7L22,27h1.8c0,0-3.1-3.5-3.2-3.6C20.5,23.2,20.3,23.1,20.3,23.1"/>
<path d="M67.2,25.9c-0.4,0-0.9,0-0.9,0v-2.6c0,0,0.3-0.1,0.9-0.1c1.2,0,1.7,0.5,1.7,1.3
	C68.9,25.3,68.5,25.9,67.2,25.9 M67.4,21.9c-0.7,0-1.1,0.1-1.1,0.1v-2.3h-1.4V27c0,0,1.2,0.1,2.4,0.1c2.3,0,3-1.4,3-2.7
	C70.3,23.1,69.6,21.9,67.4,21.9"/>
<path d="M3.9,25.8c-1.5,0-2.2-1.1-2.2-2.5c0-1.4,0.9-2.5,2.3-2.5c0.8,0,1.9,0.7,1.9,2.1v2
	C5.5,25.5,4.8,25.8,3.9,25.8 M6,19.7l0,0.9H5.9c-0.5-0.7-1.4-1.1-2.1-1.1c-2.1,0-3.4,1.6-3.4,3.8c-0.1,2.2,1.2,3.8,3.3,3.8
	c1,0,1.6-0.3,2.2-1h0.1v0.6c0,1.4-1,2-2.1,2c-1,0-1.8-0.4-2.3-0.7l-0.5,1.2c0.5,0.2,1.3,0.8,2.8,0.8c2,0,3.5-1.2,3.5-3.5v-6.8H6z"/>
<path d="M29.5,19.7v5.3c-0.4,0.5-1.1,0.9-1.9,0.9c-1.3,0-1.9-1.1-1.9-2.5v-3.7h-1.4v3.7c0,2.2,0.8,3.8,2.9,3.8
	c1,0,1.6-0.3,2.2-1h0.1v0.6c0,1.4-1,2-2.1,2c-1,0-1.8-0.4-2.3-0.7l-0.5,1.2c0.5,0.2,1.3,0.8,2.8,0.8c2,0,3.5-1.2,3.5-3.5v-6.8H29.5z
	"/>
<path d="M39.1,19.7c0,0-2.4,3.4-2.5,3.5c-0.1,0.1-0.1,0.2-0.1,0.2h-0.1c0,0,0-0.1-0.1-0.2c-0.1-0.1-2.6-3.5-2.6-3.5
	h-1.4V27h1.4v-4.6c0-0.3-0.1-0.5-0.1-0.5h0.1l2.7,3.6h0.1l2.5-3.6H39c0,0-0.1,0.2-0.1,0.5V27h1.4v-7.3H39.1z"/>
<path d="M53.6,11c0,0-2,2.6-2.1,2.7c-0.1,0.1-0.1,0.2-0.1,0.2h-0.1c0,0,0-0.1-0.1-0.2C51,13.5,48.9,11,48.9,11H47
	v7.3h2.4v-3c0-0.3-0.1-0.5-0.1-0.5h0.1l1.9,2.2h0.1l1.7-2.2h0.1c0,0-0.1,0.2-0.1,0.5v3h2.3V11H53.6z"/>
<path fill="#CD9A67" d="M84.7,18.3V11h-5.8v7.4c0,2.6,1.4,5,3.6,6.3l6.5,3.8v-6.7l-3.6-2.1C85,19.3,84.7,18.9,84.7,18.3"/>
<path fill="#E6482C" d="M89.1,25.5l6.5-3.8c2.2-1.3,3.6-3.7,3.6-6.3V0.8H89.1v5.8h4.4v8.8c0,0.5-0.3,1-0.7,1.3l-3.6,2.1V25.5z"/>
<polygon points="89.1,0.8 78.9,11 89.1,11 "/>
</svg>
