<?xml version="1.0" encoding="utf-8"?>
<!-- Generator: Adobe Illustrator 18.0.0, SVG Export Plug-In . SVG Version: 6.00 Build 0)  -->
<!DOCTYPE svg PUBLIC "-//W3C//DTD SVG 1.0//EN" "http://www.w3.org/TR/2001/REC-SVG-20010904/DTD/svg10.dtd">
<svg version="1.0" id="Layer_1" xmlns="http://www.w3.org/2000/svg" xmlns:xlink="http://www.w3.org/1999/xlink" x="0px" y="0px"
	 viewBox="0 0 188.5 142.3" enable-background="new 0 0 188.5 142.3" xml:space="preserve">
<path fill="#5A2916" d="M148.7,89l0-16.4l5.5,0c0,0,0,7.1,0,7.6c0,0.6-0.1,1.2-0.1,1.2h0.2l6-8.8l5.3,0l0,16.4h-5.5v-7.7
	c0-0.6,0.1-1.1,0.1-1.1H160l-6,8.8H148.7z"/>
<path fill="#5A2916" d="M137.3,84.3c2,0,3.3-1.6,3.3-3.5c0-2-1.3-3.6-3.3-3.6c-1.9,0-3.3,1.6-3.3,3.6
	C134,82.8,135.4,84.3,137.3,84.3 M137.3,72.2c5.2,0,9.1,3.7,9.1,8.7c0,4.9-3.9,8.6-9.1,8.6c-5.2,0-9.1-3.7-9.1-8.6
	C128.2,75.9,132.1,72.2,137.3,72.2"/>
<path fill="#5A2916" d="M28.2,106.1c3.3,0,5.6-2.4,5.6-5.6c0-3.2-2.3-5.7-5.6-5.7c-3.3,0-5.5,2.4-5.5,5.7
	C22.7,103.7,25,106.1,28.2,106.1 M28.2,91.8c5.1,0,8.8,3.7,8.8,8.7c0,4.9-3.6,8.6-8.8,8.6c-5.1,0-8.8-3.7-8.8-8.6
	C19.5,95.5,23.1,91.8,28.2,91.8"/>
<path fill="#5A2916" d="M102.2,94.6c3,0,4.5,1.9,4.8,4.4h-9.5C98,96.4,99.8,94.6,102.2,94.6 M110,101.6c0-0.3,0.1-0.7,0.1-1
	c0-5-2.6-8.7-8-8.7c-4.6,0-8,3.7-8,8.7c0,0.3,0,0.7,0.1,1h0c0.4,4.3,3.1,7.6,8.8,7.6c2.8,0,5.1-0.8,6.8-2.2l-1.3-2.4
	c-1.3,0.9-3.2,1.8-5.4,1.8c-3.6,0-5.3-1.9-5.6-4.8h0H110z"/>
<polygon fill="#5A2916" points="124.3,92.3 124.3,99 115.6,99 115.6,92.3 112.3,92.3 112.3,108.7 115.6,108.7 115.6,101.5 
	124.3,101.5 124.3,108.7 127.6,108.7 127.6,92.3 "/>
<polygon fill="#5A2916" points="144.8,92.3 129.9,92.3 129.9,95.2 135.7,95.2 135.7,108.7 139,108.7 139,95.2 144.8,95.2 "/>
<rect x="162.4" y="92.3" fill="#5A2916" width="3.3" height="16.4"/>
<path fill="#5A2916" d="M46.4,100.1v-0.1c0,0,0.3-0.1,0.6-0.4c0.3-0.3,6.3-7.2,6.3-7.2h-3.7L43.8,99h-1.3v-6.7h-3.3v16.4h3.3v-7.1
	H44l6.2,7.1h4.1c0,0-7-7.9-7.3-8.2C46.7,100.2,46.4,100.1,46.4,100.1"/>
<path fill="#5A2916" d="M152.3,106.2c-1,0-1.9-0.1-1.9-0.1v-5.9c0,0,0.7-0.2,2-0.2c2.7,0,3.9,1.1,3.9,3
	C156.3,105,155.2,106.2,152.3,106.2 M152.9,97.3c-1.5,0-2.5,0.2-2.5,0.2v-5.2h-3.3v16.4c0,0,2.7,0.3,5.5,0.3c5.1,0,6.8-3.1,6.8-6
	C159.4,100,157.9,97.3,152.9,97.3"/>
<path fill="#5A2916" d="M9.4,106.1c-3.3,0-5-2.4-5-5.6c0.1-3.2,1.9-5.7,5.2-5.7c1.8,0,4.3,1.7,4.3,4.7v4.5
	C12.9,105.3,11.3,106.1,9.4,106.1 M14.1,92.3L14,94.3h-0.2c-1-1.5-3.1-2.5-4.8-2.5c-4.8,0-7.6,3.7-7.7,8.7c-0.1,4.9,2.8,8.6,7.6,8.6
	c2.2,0,3.6-0.6,4.9-2.2h0.2v1.5c0,3.2-2.2,4.4-4.7,4.4c-2.3,0-4.1-0.9-5.2-1.5L3,114c1,0.5,3,1.7,6.2,1.7c4.6,0,8-2.7,8-8V92.3H14.1
	z"/>
<path fill="#5A2916" d="M67.2,92.3v11.9c-1,1.2-2.4,1.9-4.3,1.9c-3,0-4.4-2.4-4.3-5.6v-8.3h-3.2v8.3c-0.1,4.9,1.9,8.6,6.6,8.6
	c2.2,0,3.7-0.6,4.9-2.2h0.2v1.5c0,3.2-2.2,4.4-4.7,4.4c-2.3,0-4.1-0.9-5.2-1.5l-1.1,2.7c1,0.5,3,1.7,6.2,1.7c4.6,0,8-2.7,8-8V92.3
	H67.2z"/>
<path fill="#5A2916" d="M88.7,92.3c0,0-5.4,7.6-5.6,7.8c-0.2,0.2-0.2,0.4-0.2,0.4h-0.1c0,0-0.1-0.2-0.2-0.4c-0.2-0.2-6-7.8-6-7.8
	h-3.1v16.4h3.3V98.2c0-0.7-0.2-1.1-0.2-1.1h0.2l6,8.1H83l5.6-8.1h0.2c0,0-0.2,0.4-0.2,1.1v10.5h3.3V92.3H88.7z"/>
<path fill="#5A2916" d="M121.6,72.6c0,0-4.6,6-4.8,6.2c-0.2,0.3-0.2,0.4-0.2,0.4h-0.2c0,0,0-0.2-0.3-0.4c-0.3-0.4-5.1-6.2-5.1-6.2
	h-4.3V89h5.3v-6.9c0-0.7-0.1-1.2-0.1-1.2h0.2l4.3,4.9h0.2l4-4.9h0.2c0,0-0.1,0.4-0.1,1.2V89h5.3V72.6H121.6z"/>
<path fill="#CD9A67" d="M155.8,40V23.4h-13.1V40c0,5.9,3.1,11.3,8.2,14.2l14.8,8.5V47.6l-8.2-4.7C156.4,42.3,155.8,41.2,155.8,40"/>
<path fill="#E7472C" d="M165.6,56.2l14.8-8.5c5.1-2.9,8.2-8.4,8.2-14.2V0.4h-23v13.1h9.8l0,19.9c0,1.2-0.6,2.3-1.6,2.8l-8.2,4.7
	V56.2z"/>
<polygon fill="#5A2916" points="165.6,0.4 142.7,23.4 165.6,23.4 "/>
<polygon fill="#E7472C" points="43.6,134.2 43.7,133.2 43.6,133.2 43.1,134.3 40.8,138.2 40.1,138.2 40.1,131.3 41.1,131.3 
	41.1,135.4 41,136.4 41.1,136.4 41.5,135.3 43.9,131.3 44.6,131.3 44.6,138.2 43.6,138.2 "/>
<polygon fill="#E7472C" points="54.3,134.1 54.4,132.8 54.4,132.8 54,134 52.7,136.6 52.3,136.6 51,134 50.6,132.8 50.5,132.8 
	50.6,134.1 50.6,138.2 49.7,138.2 49.7,131.3 50.7,131.3 52.2,134.3 52.5,135.2 52.6,135.2 52.9,134.3 54.3,131.3 55.3,131.3 
	55.3,138.2 54.3,138.2 "/>
<path fill="#E7472C" d="M59,135.8l0.3,1.3h0.1l0.2-1.3l1.1-4.5h1l-1.7,6.2c-0.1,0.5-0.3,1-0.4,1.4c-0.1,0.4-0.3,0.8-0.4,1.1
	c-0.2,0.3-0.3,0.6-0.5,0.8c-0.2,0.2-0.4,0.3-0.7,0.3s-0.5,0-0.7-0.1l0.2-0.9c0.1,0,0.3,0.1,0.4,0c0.1,0,0.3-0.1,0.4-0.2
	s0.2-0.3,0.3-0.6c0.1-0.3,0.2-0.6,0.3-1l-2.3-6.9h1.1L59,135.8z"/>
<polygon fill="#E7472C" points="66.1,135.1 63.7,135.1 63.7,138.2 62.7,138.2 62.7,131.3 63.7,131.3 63.7,134.2 66.1,134.2 
	66.1,131.3 67.1,131.3 67.1,138.2 66.1,138.2 "/>
<polygon fill="#E7472C" points="72.5,134.2 72.6,133.2 72.5,133.2 72,134.3 69.7,138.2 69,138.2 69,131.3 70,131.3 70,135.4 
	70,136.4 70,136.4 70.5,135.3 72.9,131.3 73.5,131.3 73.5,138.2 72.5,138.2 "/>
<polygon fill="#E7472C" points="80.5,140 79.8,140 79.7,138.2 75.4,138.2 75.4,131.3 76.4,131.3 76.4,137.3 78.7,137.3 78.7,131.3 
	79.7,131.3 79.7,137.3 80.5,137.3 "/>
<polygon fill="#E7472C" points="85.3,134.2 85.4,133.2 85.3,133.2 84.8,134.3 82.5,138.2 81.8,138.2 81.8,131.3 82.8,131.3 
	82.8,135.4 82.8,136.4 82.8,136.4 83.3,135.3 85.6,131.3 86.3,131.3 86.3,138.2 85.3,138.2 "/>
<polygon fill="#E7472C" points="91.6,132.2 89.2,132.2 89.2,138.2 88.2,138.2 88.2,131.3 92.6,131.3 92.6,138.2 91.6,138.2 "/>
<path fill="#E7472C" d="M97.4,135.1c-0.1,0-0.2,0-0.3,0c-0.1,0-0.2,0-0.3,0c-0.2,0-0.4,0-0.6,0.1c-0.2,0-0.4,0.1-0.6,0.2
	c-0.2,0.1-0.3,0.2-0.4,0.4c-0.1,0.2-0.1,0.4-0.1,0.6c0,0.4,0.1,0.7,0.3,0.9c0.2,0.2,0.4,0.3,0.7,0.3c0.4,0,0.7-0.1,0.9-0.3
	c0.2-0.2,0.4-0.4,0.4-0.6V135.1z M94.4,131.7c0.3-0.2,0.6-0.3,1-0.4c0.4-0.1,0.8-0.1,1.2-0.1c0.4,0,0.7,0.1,0.9,0.2s0.4,0.3,0.6,0.5
	c0.1,0.2,0.2,0.4,0.3,0.7c0,0.3,0.1,0.5,0.1,0.8c0,0.6,0,1.1,0,1.6c0,0.5,0,1,0,1.5c0,0.4,0,0.7,0,1c0,0.3,0.1,0.6,0.1,0.9h-0.8
	l-0.2-0.8h-0.1c-0.1,0.2-0.3,0.4-0.6,0.6c-0.3,0.2-0.6,0.3-1.1,0.3c-0.5,0-0.9-0.2-1.2-0.5c-0.3-0.3-0.5-0.8-0.5-1.4
	c0-0.4,0.1-0.7,0.2-1c0.1-0.3,0.3-0.5,0.6-0.7c0.2-0.2,0.5-0.3,0.9-0.4c0.3-0.1,0.7-0.1,1.1-0.1h0.3c0.1,0,0.2,0,0.3,0
	c0-0.3,0-0.5,0-0.8c0-0.5-0.1-0.9-0.2-1.1c-0.2-0.2-0.4-0.3-0.9-0.3c-0.3,0-0.5,0-0.8,0.1c-0.3,0.1-0.6,0.2-0.8,0.3L94.4,131.7z"/>
<path fill="#E7472C" d="M103.3,132.2h-1.5c0,0.8-0.1,1.5-0.1,2.3c0,0.7-0.1,1.4-0.2,2c-0.1,0.6-0.3,1-0.5,1.4
	c-0.2,0.3-0.5,0.5-0.8,0.5c-0.2,0-0.3,0-0.4,0c-0.1,0-0.2,0-0.3-0.1l0.2-0.9c0.2,0.1,0.4,0,0.5,0c0.2-0.1,0.3-0.3,0.4-0.7
	c0.1-0.4,0.2-1,0.3-1.9c0.1-0.8,0.1-2,0.1-3.4h3.4v6.9h-1V132.2z"/>
<path fill="#E7472C" d="M107.2,137.3c0.3,0.1,0.5,0.1,0.8,0.1c0.9,0,1.3-0.5,1.3-1.4c0-0.4-0.1-0.7-0.3-1c-0.2-0.2-0.5-0.4-1-0.4
	c-0.1,0-0.3,0-0.4,0c-0.1,0-0.3,0-0.4,0.1V137.3z M107.2,133.9c0.2,0,0.4-0.1,0.5-0.1c0.2,0,0.3,0,0.5,0c0.4,0,0.7,0.1,1,0.2
	c0.3,0.1,0.5,0.3,0.7,0.4c0.2,0.2,0.3,0.4,0.4,0.7c0.1,0.3,0.1,0.5,0.1,0.8c0,0.8-0.2,1.5-0.6,1.8c-0.4,0.4-1,0.6-1.9,0.6
	c-0.5,0-1.1,0-1.6-0.1v-6.9h1V133.9z"/>
<polygon fill="#E7472C" points="115.1,135.1 112.7,135.1 112.7,138.2 111.7,138.2 111.7,131.3 112.7,131.3 112.7,134.2 115.1,134.2 
	115.1,131.3 116.1,131.3 116.1,138.2 115.1,138.2 "/>
<path fill="#E7472C" d="M122.9,131.3h1v6.9h-1V131.3z M119.1,137.3c0.3,0.1,0.5,0.1,0.8,0.1c0.4,0,0.8-0.1,0.9-0.4
	c0.2-0.2,0.3-0.6,0.3-1c0-0.4-0.1-0.7-0.3-1c-0.2-0.2-0.5-0.4-0.9-0.4c-0.1,0-0.3,0-0.4,0c-0.1,0-0.3,0-0.4,0.1V137.3z M119.1,133.9
	c0.2,0,0.4-0.1,0.5-0.1c0.2,0,0.3,0,0.5,0c0.4,0,0.7,0.1,1,0.2c0.3,0.1,0.5,0.3,0.6,0.4c0.2,0.2,0.3,0.4,0.3,0.7
	c0.1,0.3,0.1,0.5,0.1,0.8c0,0.8-0.2,1.5-0.6,1.8c-0.4,0.4-1,0.6-1.9,0.6c-0.5,0-1.1,0-1.6-0.1v-6.9h1V133.9z"/>
<path fill="#E7472C" d="M129.2,134c0-0.7-0.1-1.2-0.3-1.5c-0.2-0.3-0.5-0.5-0.9-0.5c-0.4,0-0.8,0.2-1,0.5c-0.3,0.3-0.4,0.8-0.4,1.5
	H129.2z M130,137.8c-0.2,0.2-0.5,0.4-0.8,0.5c-0.3,0.1-0.7,0.2-1.1,0.2c-0.4,0-0.8-0.1-1.1-0.3c-0.3-0.2-0.6-0.4-0.8-0.7
	c-0.2-0.3-0.4-0.7-0.5-1.1c-0.1-0.4-0.1-0.9-0.1-1.5c0-1.2,0.2-2.1,0.7-2.7c0.4-0.6,1.1-0.9,1.8-0.9c0.3,0,0.5,0,0.8,0.1
	c0.3,0.1,0.5,0.2,0.7,0.4c0.2,0.2,0.4,0.5,0.5,0.8c0.1,0.4,0.2,0.8,0.2,1.4c0,0.2,0,0.3,0,0.5c0,0.2,0,0.4,0,0.6h-3.5
	c0,0.4,0,0.8,0.1,1.1c0.1,0.3,0.2,0.6,0.3,0.8c0.1,0.2,0.3,0.4,0.5,0.5c0.2,0.1,0.5,0.2,0.8,0.2c0.3,0,0.5,0,0.7-0.1
	c0.2-0.1,0.4-0.2,0.6-0.3L130,137.8z"/>
<path fill="#E7472C" d="M136.7,135.8l0.3,1.3h0.1l0.2-1.3l1.1-4.5h1l-1.7,6.2c-0.1,0.5-0.3,1-0.4,1.4c-0.1,0.4-0.3,0.8-0.4,1.1
	c-0.2,0.3-0.3,0.6-0.5,0.8c-0.2,0.2-0.4,0.3-0.7,0.3s-0.5,0-0.7-0.1l0.2-0.9c0.1,0,0.3,0.1,0.4,0c0.1,0,0.3-0.1,0.4-0.2
	s0.2-0.3,0.3-0.6c0.1-0.3,0.2-0.6,0.3-1l-2.3-6.9h1.1L136.7,135.8z"/>
<path fill="#E7472C" d="M144.2,137.9c-0.2,0.2-0.5,0.3-0.8,0.4c-0.3,0.1-0.6,0.1-0.9,0.1c-0.4,0-0.8-0.1-1.1-0.3
	c-0.3-0.2-0.6-0.4-0.7-0.7c-0.2-0.3-0.3-0.7-0.4-1.2c-0.1-0.4-0.1-0.9-0.1-1.5c0-1.2,0.2-2.1,0.6-2.7c0.4-0.6,1-0.9,1.8-0.9
	c0.4,0,0.7,0,0.9,0.1c0.3,0.1,0.5,0.1,0.7,0.3l-0.3,0.9c-0.4-0.2-0.8-0.3-1.2-0.3c-0.5,0-0.9,0.2-1.1,0.7c-0.3,0.4-0.4,1.1-0.4,2.1
	c0,0.4,0,0.7,0.1,1.1c0.1,0.3,0.1,0.6,0.3,0.9c0.1,0.2,0.3,0.4,0.5,0.6c0.2,0.1,0.5,0.2,0.8,0.2c0.2,0,0.5,0,0.7-0.1
	c0.2-0.1,0.4-0.2,0.5-0.3L144.2,137.9z"/>
<path fill="#E7472C" d="M148.3,132.2h-1.5c0,0.8-0.1,1.5-0.1,2.3c0,0.7-0.1,1.4-0.2,2c-0.1,0.6-0.3,1-0.5,1.4
	c-0.2,0.3-0.5,0.5-0.8,0.5c-0.2,0-0.3,0-0.4,0c-0.1,0-0.2,0-0.3-0.1l0.2-0.9c0.2,0.1,0.4,0,0.5,0c0.2-0.1,0.3-0.3,0.4-0.7
	c0.1-0.4,0.2-1,0.3-1.9c0.1-0.8,0.1-2,0.1-3.4h3.4v6.9h-1V132.2z"/>
<path fill="#E7472C" d="M153,135.8l0.3,1.3h0.1l0.2-1.3l1.1-4.5h1l-1.7,6.2c-0.1,0.5-0.3,1-0.4,1.4c-0.1,0.4-0.3,0.8-0.4,1.1
	c-0.2,0.3-0.3,0.6-0.5,0.8c-0.2,0.2-0.4,0.3-0.7,0.3s-0.5,0-0.7-0.1l0.2-0.9c0.1,0,0.3,0.1,0.4,0c0.1,0,0.3-0.1,0.4-0.2
	s0.2-0.3,0.3-0.6c0.1-0.3,0.2-0.6,0.3-1l-2.3-6.9h1.1L153,135.8z"/>
<polygon fill="#E7472C" points="160.1,132.2 157.8,132.2 157.8,138.2 156.8,138.2 156.8,131.3 160.1,131.3 "/>
<polygon fill="#E7472C" points="164.6,134.2 164.7,133.2 164.6,133.2 164.2,134.3 161.8,138.2 161.1,138.2 161.1,131.3 162.2,131.3 
	162.2,135.4 162.1,136.4 162.1,136.4 162.6,135.3 165,131.3 165.6,131.3 165.6,138.2 164.6,138.2 "/>
<polygon fill="#E7472C" points="83.4,119.1 81.1,119.1 81.1,125.1 80,125.1 80,118.2 83.4,118.2 "/>
<path fill="#E7472C" d="M85,121.6c0,0.4,0,0.8,0.1,1.1c0.1,0.3,0.1,0.6,0.3,0.9c0.1,0.2,0.3,0.4,0.5,0.6c0.2,0.1,0.4,0.2,0.7,0.2
	c0.5,0,0.8-0.2,1.1-0.6c0.2-0.4,0.4-1.1,0.4-2.1c0-0.4,0-0.8-0.1-1.1c-0.1-0.3-0.1-0.6-0.3-0.9s-0.3-0.4-0.5-0.6
	c-0.2-0.1-0.4-0.2-0.7-0.2c-0.5,0-0.8,0.2-1.1,0.7C85.1,120,85,120.7,85,121.6 M84,121.6c0-1.3,0.2-2.2,0.6-2.8
	c0.4-0.6,1-0.9,1.8-0.9c0.9,0,1.5,0.3,1.9,0.9c0.4,0.6,0.6,1.5,0.6,2.7c0,1.3-0.2,2.2-0.7,2.8c-0.4,0.6-1,0.9-1.8,0.9
	c-0.9,0-1.5-0.3-1.9-0.9C84.2,123.8,84,122.9,84,121.6"/>
<path fill="#E7472C" d="M94.4,124.8c-0.2,0.2-0.5,0.3-0.8,0.4c-0.3,0.1-0.6,0.1-0.9,0.1c-0.4,0-0.8-0.1-1.1-0.3
	c-0.3-0.2-0.6-0.4-0.7-0.7c-0.2-0.3-0.3-0.7-0.4-1.2c-0.1-0.4-0.1-0.9-0.1-1.5c0-1.2,0.2-2.1,0.6-2.7c0.4-0.6,1-0.9,1.8-0.9
	c0.4,0,0.7,0,0.9,0.1c0.3,0.1,0.5,0.1,0.7,0.3l-0.3,0.9c-0.4-0.2-0.8-0.3-1.2-0.3c-0.5,0-0.9,0.2-1.1,0.7c-0.3,0.4-0.4,1.1-0.4,2.1
	c0,0.4,0,0.7,0.1,1.1c0.1,0.3,0.1,0.6,0.3,0.9c0.1,0.2,0.3,0.4,0.5,0.6c0.2,0.1,0.5,0.2,0.8,0.2c0.2,0,0.5,0,0.7-0.1
	c0.2-0.1,0.4-0.2,0.5-0.3L94.4,124.8z"/>
<path fill="#E7472C" d="M97.3,122.6l0.3,1.3h0.1l0.2-1.3l1.1-4.5h1l-1.7,6.2c-0.1,0.5-0.3,1-0.4,1.4c-0.1,0.4-0.3,0.8-0.4,1.1
	c-0.2,0.3-0.3,0.6-0.5,0.8c-0.2,0.2-0.4,0.3-0.7,0.3s-0.5,0-0.7-0.1l0.2-0.9c0.1,0,0.3,0.1,0.4,0c0.1,0,0.3-0.1,0.4-0.2
	s0.2-0.3,0.3-0.6c0.1-0.3,0.2-0.6,0.3-1l-2.3-6.9H96L97.3,122.6z"/>
<path fill="#E7472C" d="M104.2,124.2v-5.1h-1.6c0,0.4,0,0.8-0.1,1.3c0,0.5-0.1,0.9-0.1,1.4c-0.1,0.5-0.1,0.9-0.2,1.3
	c-0.1,0.4-0.2,0.8-0.3,1.1H104.2z M106,126.9h-0.7l-0.2-1.8H101l-0.2,1.8h-0.7v-2.7h0.7c0.1-0.1,0.1-0.3,0.2-0.6
	c0.1-0.3,0.2-0.7,0.3-1.1c0.1-0.5,0.2-1.1,0.2-1.8c0.1-0.7,0.1-1.6,0.1-2.5h3.5v6h0.8V126.9z"/>
<path fill="#E7472C" d="M110.2,121.9c-0.1,0-0.2,0-0.3,0c-0.1,0-0.2,0-0.3,0c-0.2,0-0.4,0-0.6,0.1c-0.2,0-0.4,0.1-0.6,0.2
	c-0.2,0.1-0.3,0.2-0.4,0.4c-0.1,0.2-0.1,0.4-0.1,0.6c0,0.4,0.1,0.7,0.3,0.9c0.2,0.2,0.4,0.3,0.7,0.3c0.4,0,0.7-0.1,0.9-0.3
	c0.2-0.2,0.4-0.4,0.4-0.6V121.9z M107.2,118.6c0.3-0.2,0.6-0.3,1-0.4c0.4-0.1,0.8-0.1,1.2-0.1c0.4,0,0.7,0.1,0.9,0.2
	s0.4,0.3,0.6,0.5c0.1,0.2,0.2,0.4,0.3,0.7c0,0.3,0.1,0.5,0.1,0.8c0,0.6,0,1.1,0,1.6c0,0.5,0,1,0,1.5c0,0.4,0,0.7,0,1
	c0,0.3,0.1,0.6,0.1,0.9h-0.8l-0.2-0.8h-0.1c-0.1,0.2-0.3,0.4-0.6,0.6c-0.3,0.2-0.6,0.3-1.1,0.3c-0.5,0-0.9-0.2-1.2-0.5
	c-0.3-0.3-0.5-0.8-0.5-1.4c0-0.4,0.1-0.7,0.2-1c0.1-0.3,0.3-0.5,0.6-0.7c0.2-0.2,0.5-0.3,0.9-0.4c0.3-0.1,0.7-0.1,1.1-0.1h0.3
	c0.1,0,0.2,0,0.3,0c0-0.3,0-0.5,0-0.8c0-0.5-0.1-0.9-0.2-1.1c-0.2-0.2-0.4-0.3-0.9-0.3c-0.3,0-0.5,0-0.8,0.1
	c-0.3,0.1-0.6,0.2-0.8,0.3L107.2,118.6z"/>
<path fill="#E7472C" d="M114.1,124c0.1,0.1,0.3,0.2,0.4,0.3c0.2,0.1,0.4,0.1,0.6,0.1c0.5,0,0.9-0.3,1.2-0.8c0.3-0.5,0.4-1.2,0.4-2.1
	c0-0.4,0-0.7-0.1-1.1c-0.1-0.3-0.1-0.6-0.2-0.8c-0.1-0.2-0.3-0.4-0.4-0.5c-0.2-0.1-0.4-0.2-0.6-0.2c-0.7,0-1.1,0.4-1.3,1.2V124z
	 M113.1,118.2h0.7l0.2,0.8h0.1c0.3-0.6,0.9-0.9,1.6-0.9c0.7,0,1.3,0.3,1.6,0.8s0.5,1.4,0.5,2.7c0,0.6-0.1,1.1-0.2,1.6
	c-0.1,0.5-0.3,0.9-0.5,1.2c-0.2,0.3-0.5,0.6-0.8,0.7c-0.3,0.2-0.7,0.3-1.1,0.3c-0.3,0-0.5,0-0.6,0c-0.2,0-0.3-0.1-0.5-0.2v2.9h-1
	V118.2z"/>
<path fill="#E7472C" d="M123.3,124.8c-0.2,0.2-0.5,0.3-0.8,0.4c-0.3,0.1-0.6,0.1-0.9,0.1c-0.4,0-0.8-0.1-1.1-0.3
	c-0.3-0.2-0.6-0.4-0.7-0.7c-0.2-0.3-0.3-0.7-0.4-1.2c-0.1-0.4-0.1-0.9-0.1-1.5c0-1.2,0.2-2.1,0.6-2.7c0.4-0.6,1-0.9,1.8-0.9
	c0.4,0,0.7,0,0.9,0.1c0.3,0.1,0.5,0.1,0.7,0.3l-0.3,0.9c-0.4-0.2-0.8-0.3-1.2-0.3c-0.5,0-0.9,0.2-1.1,0.7c-0.3,0.4-0.4,1.1-0.4,2.1
	c0,0.4,0,0.7,0.1,1.1c0.1,0.3,0.1,0.6,0.3,0.9c0.1,0.2,0.3,0.4,0.5,0.6c0.2,0.1,0.5,0.2,0.8,0.2c0.2,0,0.5,0,0.7-0.1
	c0.2-0.1,0.4-0.2,0.5-0.3L123.3,124.8z"/>
<polygon fill="#E7472C" points="128.1,119.1 126.4,119.1 126.4,125.1 125.4,125.1 125.4,119.1 123.7,119.1 123.7,118.2 128.1,118.2 
	"/>
<path fill="#E7472C" d="M130.3,124.2c0.1,0,0.3,0,0.4,0c0.1,0,0.3,0,0.5,0c0.5,0,0.8-0.1,1-0.3c0.2-0.2,0.3-0.5,0.3-0.9
	c0-0.3-0.1-0.6-0.3-0.8c-0.2-0.2-0.5-0.3-1-0.3h-0.9V124.2z M131.3,121.1c0.1,0,0.3,0,0.4-0.1c0.1-0.1,0.2-0.1,0.3-0.2
	c0.1-0.1,0.2-0.2,0.2-0.4c0.1-0.1,0.1-0.3,0.1-0.4c0-0.4-0.1-0.6-0.3-0.8c-0.2-0.2-0.5-0.3-0.9-0.3c-0.2,0-0.4,0-0.5,0
	c-0.1,0-0.3,0-0.4,0v2.1H131.3z M129.3,118.2c0.3,0,0.5,0,0.8-0.1c0.3,0,0.7,0,1.1,0c0.8,0,1.3,0.1,1.6,0.4c0.3,0.3,0.5,0.7,0.5,1.3
	c0,0.3-0.1,0.6-0.2,0.9c-0.2,0.3-0.4,0.5-0.8,0.7v0.1c0.4,0.1,0.8,0.3,0.9,0.6c0.2,0.3,0.3,0.6,0.3,1.1c0,0.7-0.2,1.2-0.6,1.6
	c-0.4,0.3-1.1,0.5-1.9,0.5c-0.3,0-0.6,0-0.9,0c-0.3,0-0.6,0-0.8-0.1V118.2z"/>
<path fill="#E7472C" d="M138.5,120.9c0-0.7-0.1-1.2-0.3-1.5c-0.2-0.3-0.5-0.5-0.9-0.5c-0.4,0-0.8,0.2-1,0.5
	c-0.3,0.3-0.4,0.8-0.4,1.5H138.5z M139.3,124.6c-0.2,0.2-0.5,0.4-0.8,0.5c-0.3,0.1-0.7,0.2-1.1,0.2c-0.4,0-0.8-0.1-1.1-0.3
	c-0.3-0.2-0.6-0.4-0.8-0.7c-0.2-0.3-0.4-0.7-0.5-1.1c-0.1-0.4-0.1-0.9-0.1-1.5c0-1.2,0.2-2.1,0.7-2.7c0.4-0.6,1.1-0.9,1.8-0.9
	c0.3,0,0.5,0,0.8,0.1c0.3,0.1,0.5,0.2,0.7,0.4c0.2,0.2,0.4,0.5,0.5,0.8c0.1,0.4,0.2,0.8,0.2,1.4c0,0.2,0,0.3,0,0.5
	c0,0.2,0,0.4,0,0.6h-3.5c0,0.4,0,0.8,0.1,1.1c0.1,0.3,0.2,0.6,0.3,0.8c0.1,0.2,0.3,0.4,0.5,0.5c0.2,0.1,0.5,0.2,0.8,0.2
	c0.3,0,0.5,0,0.7-0.1c0.2-0.1,0.4-0.2,0.6-0.3L139.3,124.6z"/>
<polygon fill="#E7472C" points="144.6,122 142.1,122 142.1,125.1 141.1,125.1 141.1,118.2 142.1,118.2 142.1,121.1 144.6,121.1 
	144.6,118.2 145.6,118.2 145.6,125.1 144.6,125.1 "/>
<polygon fill="#E7472C" points="150.9,122 148.5,122 148.5,125.1 147.5,125.1 147.5,118.2 148.5,118.2 148.5,121.1 150.9,121.1 
	150.9,118.2 151.9,118.2 151.9,125.1 150.9,125.1 "/>
<path fill="#E7472C" d="M158.6,118.2h1v6.9h-1V118.2z M154.8,124.2c0.3,0.1,0.5,0.1,0.8,0.1c0.4,0,0.8-0.1,0.9-0.4
	c0.2-0.2,0.3-0.6,0.3-1c0-0.4-0.1-0.7-0.3-1c-0.2-0.2-0.5-0.4-0.9-0.4c-0.1,0-0.3,0-0.4,0c-0.1,0-0.3,0-0.4,0.1V124.2z M154.8,120.8
	c0.2,0,0.4-0.1,0.5-0.1c0.2,0,0.3,0,0.5,0c0.4,0,0.7,0.1,1,0.2c0.3,0.1,0.5,0.3,0.6,0.4c0.2,0.2,0.3,0.4,0.3,0.7
	c0.1,0.3,0.1,0.5,0.1,0.8c0,0.8-0.2,1.5-0.6,1.8c-0.4,0.4-1,0.6-1.9,0.6c-0.5,0-1.1,0-1.6-0.1v-6.9h1V120.8z"/>
<path fill="#E7472C" d="M164.9,120.9c0-0.7-0.1-1.2-0.3-1.5c-0.2-0.3-0.5-0.5-0.9-0.5c-0.4,0-0.8,0.2-1,0.5
	c-0.3,0.3-0.4,0.8-0.4,1.5H164.9z M165.7,124.6c-0.2,0.2-0.5,0.4-0.8,0.5c-0.3,0.1-0.7,0.2-1.1,0.2c-0.4,0-0.8-0.1-1.1-0.3
	c-0.3-0.2-0.6-0.4-0.8-0.7c-0.2-0.3-0.4-0.7-0.5-1.1c-0.1-0.4-0.1-0.9-0.1-1.5c0-1.2,0.2-2.1,0.7-2.7c0.4-0.6,1.1-0.9,1.8-0.9
	c0.3,0,0.5,0,0.8,0.1c0.3,0.1,0.5,0.2,0.7,0.4c0.2,0.2,0.4,0.5,0.5,0.8c0.1,0.4,0.2,0.8,0.2,1.4c0,0.2,0,0.3,0,0.5
	c0,0.2,0,0.4,0,0.6h-3.5c0,0.4,0,0.8,0.1,1.1c0.1,0.3,0.2,0.6,0.3,0.8c0.1,0.2,0.3,0.4,0.5,0.5c0.2,0.1,0.5,0.2,0.8,0.2
	c0.3,0,0.5,0,0.7-0.1c0.2-0.1,0.4-0.2,0.6-0.3L165.7,124.6z"/>
</svg>
