<?xml version="1.0" encoding="utf-8"?>
<!-- Generator: Adobe Illustrator 18.0.0, SVG Export Plug-In . SVG Version: 6.00 Build 0)  -->
<!DOCTYPE svg PUBLIC "-//W3C//DTD SVG 1.0//EN" "http://www.w3.org/TR/2001/REC-SVG-20010904/DTD/svg10.dtd">
<svg version="1.0" id="Layer_1" xmlns="http://www.w3.org/2000/svg" xmlns:xlink="http://www.w3.org/1999/xlink" x="0px" y="0px"
	 viewBox="0 0 22.3 28.1" enable-background="new 0 0 22.3 28.1" xml:space="preserve">
<path fill="#5A2916" d="M16.4,27.9c-1.3,0-2.5-0.6-3.5-1.4C7.9,23.1,5.1,18,3.6,12C3,9.8,2.9,7.4,3.3,5.1c0.4-2.3,1.5-3.9,3.5-4.8
	c1-0.4,2.5-0.4,3.1,0c0.4,0.3,0.6,1.4,0.7,1.7c0.2,1.1,0.7,3.4,0.8,4c0.2,0.9,0.1,1.3-0.7,1.7c-0.7,0.4-1.4,0.6-2.1,1
	c-1,0.4-1.1,0.8-0.9,1.8c0.7,3.8,2.3,7.1,4.8,9.9c0.8,0.8,1.1,0.9,2,0.3c0.6-0.4,1.3-0.9,1.9-1.3c0.8-0.5,1.1-0.3,1.7,0.4
	c1,1.1,2.6,2.9,2.9,3.2c0.3,0.3,0.7,0.8,0.7,1.2C21.8,24.7,20.2,27.9,16.4,27.9"/>
</svg>
