<?xml version="1.0" encoding="utf-8"?>
<!-- Generator: Adobe Illustrator 18.0.0, SVG Export Plug-In . SVG Version: 6.00 Build 0)  -->
<!DOCTYPE svg PUBLIC "-//W3C//DTD SVG 1.0//EN" "http://www.w3.org/TR/2001/REC-SVG-20010904/DTD/svg10.dtd">
<svg version="1.0" id="Layer_1" xmlns="http://www.w3.org/2000/svg" xmlns:xlink="http://www.w3.org/1999/xlink" x="0px" y="0px"
	 viewBox="0 0 106.9 109.7" enable-background="new 0 0 106.9 109.7" xml:space="preserve">
<path fill="#CD9A67" d="M85.7,13.6C78,5.5,67.3,0.8,56.2,0.8v21.9c5.3,0,10.5,2.2,14.1,6.1c3.3,3.6,4.7,8.1,4.5,12.9
	c-0.3,6.9-2.3,12.8-7,18.2c-2.8,3.1-7.1,6.9-11.6,10.5v29.7c6.2-5,19.8-16.8,27.4-25.5c8.1-9.2,12.5-20,12.9-32
	C96.9,31.8,93.1,21.5,85.7,13.6 M62.4,41.2c0-3.4-2.8-6.2-6.2-6.2c-3.4,0-6.2,2.8-6.2,6.2c0,3.4,2.8,6.2,6.2,6.2
	C59.6,47.4,62.4,44.6,62.4,41.2"/>
<path fill="#E6482C" d="M56.2,79.7C39.5,62.5,37.5,50.8,37.5,42.2c0-10.8,8.1-19.5,18.6-19.5V0.8c-22.3,0-40.4,18.6-40.4,41.4
	c0,10.9,2.8,21.2,8.6,31.4c5.8,10.2,14.6,20.4,26.9,31.3l4.8,4.3V79.7z"/>
</svg>
