<?xml version="1.0" encoding="utf-8"?>
<!-- Generator: Adobe Illustrator 18.0.0, SVG Export Plug-In . SVG Version: 6.00 Build 0)  -->
<!DOCTYPE svg PUBLIC "-//W3C//DTD SVG 1.0//EN" "http://www.w3.org/TR/2001/REC-SVG-20010904/DTD/svg10.dtd">
<svg version="1.0" id="Layer_1" xmlns="http://www.w3.org/2000/svg" xmlns:xlink="http://www.w3.org/1999/xlink" x="0px" y="0px"
	 viewBox="0 0 129 109.7" enable-background="new 0 0 129 109.7" xml:space="preserve">
<path fill="#CD9A67" d="M72,22.9c3.3,0,6-2.7,6-6c0-3.3-2.7-6-6-6s-6,2.7-6,6C66,20.3,68.7,22.9,72,22.9 M112.1,72L99.7,25.9H64.6
	v20.9h19.2l6.2,23.1c0.2,0.9,0,1.9-0.5,2.6c-0.6,0.7-1.4,1.2-2.4,1.2H64.6v20.9h30.3c5.6,0,10.8-2.6,14.2-7
	C112.4,83.1,113.5,77.3,112.1,72"/>
<path fill="#E6482C" d="M57.1,22.9c3.3,0,6-2.7,6-6s-2.7-6-6-6c-3.3,0-6,2.7-6,6S53.8,22.9,57.1,22.9 M47.8,46.8h16.8V25.9H31.8
	L17,80.9c-1.4,5.4-0.3,11.1,3.1,15.5c3.4,4.4,8.6,7,14.2,7h30.3V82.6H42.1c-0.9,0-1.8-0.4-2.4-1.2c-0.6-0.7-0.8-1.7-0.5-2.6
	L47.8,46.8z"/>
</svg>
