<?xml version="1.0" encoding="utf-8"?>
<!-- Generator: Adobe Illustrator 18.0.0, SVG Export Plug-In . SVG Version: 6.00 Build 0)  -->
<!DOCTYPE svg PUBLIC "-//W3C//DTD SVG 1.0//EN" "http://www.w3.org/TR/2001/REC-SVG-20010904/DTD/svg10.dtd">
<svg version="1.0" id="Layer_1" xmlns="http://www.w3.org/2000/svg" xmlns:xlink="http://www.w3.org/1999/xlink" x="0px" y="0px"
	 viewBox="0 0 106.9 109.7" enable-background="new 0 0 106.9 109.7" xml:space="preserve">
<path fill="#CD9A67" d="M104.7,23c-7.5,6.3-20.5,10-30.2,7.9c-13.4-2.8-19.6-16.1-20.7-19l0,31.6c5.3,7.2,15.4,10.2,25.3,9.3
	l-3.6,17.9H53.6v22.3L94.9,93C94.9,93,104.7,23,104.7,23"/>
<path fill="#E6482C" d="M27.8,52.9C38,54,48.3,51,53.8,43.6l0-31.6c-1.1,2.8-7.3,16.2-20.7,19c-9.8,2.1-22.8-1.6-30.4-8h0l9.5,79.6
	l41.3,0.1V80.4H31.3L27.8,52.9z"/>
</svg>
