<?xml version="1.0" encoding="utf-8"?>
<!-- Generator: Adobe Illustrator 18.0.0, SVG Export Plug-In . SVG Version: 6.00 Build 0)  -->
<!DOCTYPE svg PUBLIC "-//W3C//DTD SVG 1.0//EN" "http://www.w3.org/TR/2001/REC-SVG-20010904/DTD/svg10.dtd">
<svg version="1.0" id="Layer_1" xmlns="http://www.w3.org/2000/svg" xmlns:xlink="http://www.w3.org/1999/xlink" x="0px" y="0px"
	 viewBox="0 0 129 109.7" enable-background="new 0 0 129 109.7" xml:space="preserve">
<path fill="#E6482C" d="M65.3,83C37.4,72.2,29.6,57.9,29.6,47c0-8.5,4.8-14,13.7-14c5,0,14,4.3,22,15.3V20.8C58,13.6,49.2,8,37.8,8
	C19.5,8,5.2,23.1,4.6,41.6c-0.8,28.6,19.1,52.6,60.6,66.3V83z"/>
<path fill="#CD9A67" d="M65.3,73.1c20.9-5.2,35.7-15.8,35.7-27.6c0-6.6-3.6-12.5-12.6-12.5c-5,0-15.5,4.4-23.1,15.3V20.8
	C72.5,13.5,81.3,8,92.8,8c18.3,0,33.2,15,33.2,33.6c0,24.5-17.4,44.1-60.7,55.6V73.1z"/>
</svg>
