<?xml version="1.0" encoding="utf-8"?>
<!-- Generator: Adobe Illustrator 18.0.0, SVG Export Plug-In . SVG Version: 6.00 Build 0)  -->
<!DOCTYPE svg PUBLIC "-//W3C//DTD SVG 1.0//EN" "http://www.w3.org/TR/2001/REC-SVG-20010904/DTD/svg10.dtd">
<svg version="1.0" id="Layer_1" xmlns="http://www.w3.org/2000/svg" xmlns:xlink="http://www.w3.org/1999/xlink" x="0px" y="0px"
	 viewBox="0 0 129 109.7" enable-background="new 0 0 129 109.7" xml:space="preserve">
<path fill="#E6482C" d="M48,29.4h15.8V7.3H35.4c-7,0-12.7,5.7-12.7,12.7v88.7h41.2V86.5h-19V32.6C44.9,30.9,46.3,29.4,48,29.4"/>
<path fill="#CD9A67" d="M70.2,45.3c0-3.5-2.8-6.3-6.3-6.3c-3.5,0-6.3,2.8-6.3,6.3c0,3.5,2.8,6.3,6.3,6.3
	C67.4,51.6,70.2,48.8,70.2,45.3 M92.4,7.3H63.9v22.2h15.8c1.7,0,3.2,1.4,3.2,3.2V77h-19v22.2h41.2V19.9
	C105.1,12.9,99.4,7.3,92.4,7.3"/>
</svg>
