<?xml version="1.0" encoding="utf-8"?>
<!-- Generator: Adobe Illustrator 18.0.0, SVG Export Plug-In . SVG Version: 6.00 Build 0)  -->
<!DOCTYPE svg PUBLIC "-//W3C//DTD SVG 1.0//EN" "http://www.w3.org/TR/2001/REC-SVG-20010904/DTD/svg10.dtd">
<svg version="1.0" id="Layer_1" xmlns="http://www.w3.org/2000/svg" xmlns:xlink="http://www.w3.org/1999/xlink" x="0px" y="0px"
	 viewBox="0 0 90.3 109.7" enable-background="new 0 0 90.3 109.7" xml:space="preserve">
<path fill="#E6482C" d="M23.2,62.5L45,40.7V11.4L21.4,35.1V20.2h-5.9V41L4.2,52.2c-2.2,2.2-3.5,5.2-3.5,8.3v45.2H45V85.1H21.4V66.7
	C21.4,65.1,22.1,63.6,23.2,62.5"/>
<path fill="#CD9A67" d="M85.8,52.2L45,11.4v29.2l21.9,21.9c1.1,1.1,1.7,2.6,1.7,4.2v9.6H45v20.7h44.3V60.6
	C89.3,57.5,88,54.5,85.8,52.2"/>
<path fill="#E6482C" d="M23.2,62.5L45,40.7V11.4L21.4,35.1V20.2h-5.9V41L4.2,52.2c-2.2,2.2-3.5,5.2-3.5,8.3v45.2H45V85.1H21.4V66.7
	C21.4,65.1,22.1,63.6,23.2,62.5"/>
<path fill="#CD9A67" d="M85.8,52.2L45,11.4v29.2l21.9,21.9c1.1,1.1,1.7,2.6,1.7,4.2v9.6H45v20.7h44.3V60.6
	C89.3,57.5,88,54.5,85.8,52.2"/>
</svg>
