<?xml version="1.0" encoding="utf-8"?>
<!-- Generator: Adobe Illustrator 18.0.0, SVG Export Plug-In . SVG Version: 6.00 Build 0)  -->
<!DOCTYPE svg PUBLIC "-//W3C//DTD SVG 1.0//EN" "http://www.w3.org/TR/2001/REC-SVG-20010904/DTD/svg10.dtd">
<svg version="1.0" id="Layer_1" xmlns="http://www.w3.org/2000/svg" xmlns:xlink="http://www.w3.org/1999/xlink" x="0px" y="0px"
	 viewBox="0 0 129 109.7" enable-background="new 0 0 129 109.7" xml:space="preserve">
<path fill="#E6482C" d="M66.8,77.7C47.2,67.2,44.8,26.6,44.8,26.6s12.1-3.2,22.2-3.2L67,0C53.9,0,21.3,7.1,21.3,7.1
	s-0.5,42.5,9.5,64.7c10.7,23.7,35.9,38.2,35.9,38.2V77.7z"/>
<path fill="#CD9A67" d="M67.2,63.7c19.6-10.5,21.9-37.2,21.9-37.2s-12.3-3.2-22.4-3.2L67,0c13.1,0,45.7,7.1,45.7,7.1
	s1.7,26.5-8.3,48.7C93.7,79.4,67.2,95.9,67.2,95.9V63.7z"/>
</svg>
