<?xml version="1.0" encoding="utf-8"?>
<!-- Generator: Adobe Illustrator 18.0.0, SVG Export Plug-In . SVG Version: 6.00 Build 0)  -->
<!DOCTYPE svg PUBLIC "-//W3C//DTD SVG 1.0//EN" "http://www.w3.org/TR/2001/REC-SVG-20010904/DTD/svg10.dtd">
<svg version="1.0" id="Layer_1" xmlns="http://www.w3.org/2000/svg" xmlns:xlink="http://www.w3.org/1999/xlink" x="0px" y="0px"
	 viewBox="0 0 129 109.7" enable-background="new 0 0 129 109.7" xml:space="preserve">
<g>
	<path fill="#E6482C" d="M65.8,9.6V3.2H53c-1.8,0-3.2,1.4-3.2,3.2v11.2H30.5c-7.1,0-12.8,5.7-12.8,12.8v68.9h48.1V77H40.1V43.3
		c0-1.8,1.4-3.2,3.2-3.2h22.4V17.7h-9.6v-8H65.8z"/>
	<path fill="#CD9A67" d="M101,17.7H81.8V6.4c0-1.8-1.4-3.2-3.2-3.2H65.8v6.4h9.6v8h-9.6v22.4h22.4c1.8,0,3.2,1.4,3.2,3.2v24H65.8
		v22.4h48.1V30.5C113.9,23.4,108.1,17.7,101,17.7"/>
	<rect x="29.8" y="0" fill="none" width="88.4" height="113"/>
</g>
</svg>
