<?xml version="1.0" encoding="utf-8"?>
<!-- Generator: Adobe Illustrator 18.0.0, SVG Export Plug-In . SVG Version: 6.00 Build 0)  -->
<!DOCTYPE svg PUBLIC "-//W3C//DTD SVG 1.0//EN" "http://www.w3.org/TR/2001/REC-SVG-20010904/DTD/svg10.dtd">
<svg version="1.0" id="Layer_1" xmlns="http://www.w3.org/2000/svg" xmlns:xlink="http://www.w3.org/1999/xlink" x="0px" y="0px"
	 viewBox="0 0 129 109.7" enable-background="new 0 0 129 109.7" xml:space="preserve">
<path fill="#E64A2D" d="M63.9,20.7L63.9,20.7C63.9,20.7,63.9,20.7,63.9,20.7l0-18.9c-15.1,0-27.4,12.2-27.4,27.4
	c0,6.3,3,13.7,6.7,18.3c-5.8,2.2-9.3,4.3-12.2,6.9C25.8,59,20.7,64.7,20.7,83.9v25.8h43.2v-21l-21.7-0.1c0-4.7-0.1-9.3,0.7-13.1
	c1-4.8,4.4-12.9,21-12.9l0-6.4V43.7v-2.9c0,0,0,0,0,0v0c-4.8,0-9.2-5.7-9.2-10.8C54.6,24.9,58.8,20.7,63.9,20.7"/>
<path fill="#CD9B68" d="M63.9,20.7L63.9,20.7C63.9,20.7,63.8,20.7,63.9,20.7l0-18.9c15.1,0,27.4,12.2,27.4,27.4
	c0,6.3-3,13.7-6.7,18.3c5.8,2.2,9.3,4.3,12.2,6.9c4.3,3.8,8.4,8.3,9.8,20.4c0.3,2.6,0.5,5.6,0.5,9v16.5H63.8v-21l21.5-0.1
	c0-1.4-0.1-2-0.5-3.8c-1-4.8-4.4-12.9-21-12.9l0-6.4V43.7v-2.9c0,0,0,0,0,0v0c4.8,0,9.2-5.7,9.2-10.8C73.1,24.9,69,20.7,63.9,20.7"
	/>
</svg>
