<?xml version="1.0" encoding="utf-8"?>
<!-- Generator: Adobe Illustrator 18.0.0, SVG Export Plug-In . SVG Version: 6.00 Build 0)  -->
<!DOCTYPE svg PUBLIC "-//W3C//DTD SVG 1.0//EN" "http://www.w3.org/TR/2001/REC-SVG-20010904/DTD/svg10.dtd">
<svg version="1.0" id="Layer_1" xmlns="http://www.w3.org/2000/svg" xmlns:xlink="http://www.w3.org/1999/xlink" x="0px" y="0px"
	 viewBox="0 0 83 112.9" enable-background="new 0 0 83 112.9" xml:space="preserve">
<g>
	<path d="M0,42.2v27.9c0,10.4,5.5,20,14.5,25.2l26.1,15.1V83.5l-14.5-8.4c-1.8-1-2.9-3-2.9-5V42.2H0z"/>
	<path d="M40.7,0L40.7,0l-0.1,23.2h0.1V0z M81.3,58.5V0h-39v23.2h15.7l0,35.3c0,2.1-1.1,4-2.9,5L42.3,71v26.8
		l24.5-14.2C75.8,78.5,81.3,68.9,81.3,58.5"/>
	<polygon points="40.7,0 0,40.7 40.7,40.7 	"/>
</g>
</svg>
