<?xml version="1.0" encoding="utf-8"?>
<!-- Generator: Adobe Illustrator 18.0.0, SVG Export Plug-In . SVG Version: 6.00 Build 0)  -->
<!DOCTYPE svg PUBLIC "-//W3C//DTD SVG 1.0//EN" "http://www.w3.org/TR/2001/REC-SVG-20010904/DTD/svg10.dtd">
<svg version="1.0" id="Layer_1" xmlns="http://www.w3.org/2000/svg" xmlns:xlink="http://www.w3.org/1999/xlink" x="0px" y="0px"
	 viewBox="0 0 15.3 26.7" enable-background="new 0 0 15.3 26.7" xml:space="preserve">
<g>
	<path d="M7.7,0.2c-4.1,0-7.4,3.3-7.4,7.4v2H5v-2c0-1.5,1.2-2.7,2.7-2.7c1.5,0,2.7,1.2,2.7,2.7
		c0,0.7-0.3,1.4-0.8,1.9l-2.1,2.1c-1.4,1.4-2.2,3.3-2.2,5.2l0,0.9l4.7,0l0-0.9c0-0.7,0.3-1.4,0.8-1.9l2.1-2.1
		c1.4-1.4,2.2-3.3,2.2-5.2C15.1,3.6,11.8,0.2,7.7,0.2"/>
	<path d="M7.7,20.1c-1.6,0-2.9,1.3-2.9,2.9c0,1.6,1.3,2.9,2.9,2.9c1.6,0,2.9-1.3,2.9-2.9
		C10.6,21.4,9.3,20.1,7.7,20.1"/>
</g>
</svg>
