<?xml version="1.0" encoding="utf-8"?>
<!-- Generator: Adobe Illustrator 18.0.0, SVG Export Plug-In . SVG Version: 6.00 Build 0)  -->
<!DOCTYPE svg PUBLIC "-//W3C//DTD SVG 1.0//EN" "http://www.w3.org/TR/2001/REC-SVG-20010904/DTD/svg10.dtd">
<svg version="1.0" id="Layer_1" xmlns="http://www.w3.org/2000/svg" xmlns:xlink="http://www.w3.org/1999/xlink" x="0px" y="0px"
	 viewBox="0 0 15.8 13.8" enable-background="new 0 0 15.8 13.8" xml:space="preserve">
<g>
	<g>
		<g>
			<path fill-rule="evenodd" clip-rule="evenodd" fill="#C19066" d="M6.9,0C3.9,0,1.5,2.4,1.5,5.3s2.4,5.3,5.3,5.3
				c2.9,0,5.3-2.4,5.3-5.3S9.8,0,6.9,0z M6.9,9.3c-2.2,0-3.9-1.8-3.9-3.9s1.8-3.9,3.9-3.9c2.2,0,3.9,1.8,3.9,3.9S9,9.3,6.9,9.3z"/>
		</g>
	</g>
	<path fill-rule="evenodd" clip-rule="evenodd" fill="#C19066" d="M14.6,12.2l-0.4,0.4c-0.2,0.2-0.4,0.2-0.6,0l-3.4-3.4
		c-0.2-0.2-0.2-0.4,0-0.6l0.4-0.4c0.2-0.2,0.4-0.2,0.6,0l3.4,3.4C14.8,11.8,14.8,12.1,14.6,12.2z"/>
</g>
</svg>
