<?xml version="1.0" encoding="utf-8"?>
<!-- Generator: Adobe Illustrator 18.0.0, SVG Export Plug-In . SVG Version: 6.00 Build 0)  -->
<!DOCTYPE svg PUBLIC "-//W3C//DTD SVG 1.0//EN" "http://www.w3.org/TR/2001/REC-SVG-20010904/DTD/svg10.dtd">
<svg version="1.0" id="Layer_1" xmlns="http://www.w3.org/2000/svg" xmlns:xlink="http://www.w3.org/1999/xlink" x="0px" y="0px"
	 viewBox="0 0 33.9 33.8" enable-background="new 0 0 33.9 33.8" xml:space="preserve">
<g>
	<g>
		<path fill-rule="evenodd" clip-rule="evenodd" d="M32.8,31.3l-9.7-9.5c0,0-0.1-0.1-0.2-0.1c2-2.3,3.2-5.3,3.2-8.6
			C26.3,5.9,20.4,0,13.1,0S0,5.9,0,13.1s5.9,13.1,13.1,13.1c3.2,0,6.2-1.2,8.5-3.1c0,0.1,0.1,0.1,0.1,0.2l9.7,9.5
			c0.4,0.4,1.1,0.4,1.5,0C33.3,32.4,33.3,31.7,32.8,31.3z M13.1,24.5c-6.3,0-11.3-5.1-11.3-11.3S6.9,1.8,13.1,1.8
			s11.3,5.1,11.3,11.3S19.4,24.5,13.1,24.5z"/>
	</g>
</g>
</svg>
